<svg width="169" height="169" viewBox="0 0 169 169" fill="none" xmlns="http://www.w3.org/2000/svg">
<path d="M21.4021 63.502C25.8493 50.1385 34.4244 38.5321 45.8917 30.3553C57.3589 22.1785 71.1261 17.8536 85.2093 18.0038L84.8191 54.5768C78.4817 54.5092 72.2865 56.4554 67.1262 60.1349C61.9659 63.8145 58.1071 69.0374 56.1059 75.0509L21.4021 63.502Z" fill="#3E4954" stroke="white" stroke-width="8"/>
<path d="M83.5969 18.0062C99.0395 17.7965 114.074 22.9682 126.119 32.6338C138.164 42.2995 146.47 55.8563 149.611 70.9776C152.751 86.0989 150.53 101.842 143.33 115.505C136.129 129.167 124.398 139.898 110.149 145.855L96.042 112.11C102.454 109.429 107.733 104.6 110.973 98.4521C114.214 92.3038 115.213 85.2195 113.8 78.4149C112.386 71.6103 108.649 65.5098 103.228 61.1602C97.808 56.8107 91.0427 54.4834 84.0936 54.5778L83.5969 18.0062Z" fill="#FF6D4C" stroke="white" stroke-width="8"/>
<path d="M111.145 145.428C99.3679 150.579 86.3503 152.206 73.6677 150.112C60.9851 148.018 49.1812 142.293 39.6844 133.631C30.1875 124.968 23.4049 113.738 20.1573 101.301C16.9097 88.8639 17.3363 75.752 21.3854 63.5521L56.0984 75.0735C54.2763 80.5634 54.0843 86.4638 55.5457 92.0605C57.0072 97.6573 60.0593 102.711 64.3329 106.609C68.6065 110.507 73.9182 113.083 79.6254 114.025C85.3326 114.968 91.1905 114.236 96.4903 111.918L111.145 145.428Z" fill="#2BC155" stroke="white" stroke-width="8"/>
</svg>
