<svg width="66" height="65" viewBox="0 0 66 65" fill="none" xmlns="http://www.w3.org/2000/svg">
<rect y="9" width="56" height="56" rx="8" fill="#E9ECFF"/>
<path d="M36.4604 26.8488H19.3168C18.6474 26.8496 18.0056 27.1158 17.5323 27.5892C17.059 28.0625 16.7927 28.7043 16.792 29.3737V41.1562C16.7927 41.8256 17.059 42.4674 17.5323 42.9407C18.0056 43.414 18.6474 43.6803 19.3168 43.681C19.54 43.6812 19.754 43.7699 19.9118 43.9277C20.0696 44.0855 20.1583 44.2995 20.1584 44.5226V46.3168C20.1584 46.6214 20.2411 46.9204 20.3977 47.1817C20.5542 47.4431 20.7788 47.6571 21.0474 47.8008C21.316 47.9446 21.6186 48.0127 21.9229 47.998C22.2272 47.9833 22.5218 47.8863 22.7753 47.7173L28.6173 43.8224C28.7554 43.7299 28.9179 43.6807 29.0841 43.681H33.187C33.7383 43.68 34.2742 43.4993 34.7136 43.1664C35.1531 42.8334 35.472 42.3664 35.6222 41.8359L38.8965 30.0501C38.9998 29.6748 39.0152 29.2807 38.9413 28.8985C38.8674 28.5163 38.7064 28.1564 38.4707 27.8466C38.2349 27.5368 37.9309 27.2857 37.5822 27.1126C37.2336 26.9395 36.8497 26.8493 36.4604 26.8488ZM37.2732 29.603L34.0005 41.3847C33.9499 41.5614 33.8432 41.7168 33.6964 41.8274C33.5496 41.938 33.3708 41.9979 33.187 41.9978H29.0841C28.5855 41.9972 28.098 42.1448 27.6836 42.4219L21.8416 46.3168V44.5226C21.8409 43.8532 21.5747 43.2115 21.1013 42.7381C20.628 42.2648 19.9862 41.9985 19.3168 41.9978C19.0937 41.9977 18.8797 41.909 18.7219 41.7512C18.5641 41.5934 18.4753 41.3794 18.4752 41.1562V29.3737C18.4753 29.1505 18.5641 28.9365 18.7219 28.7787C18.8797 28.6209 19.0937 28.5322 19.3168 28.5321H36.4604C36.5905 28.5324 36.7187 28.5627 36.8352 28.6207C36.9516 28.6787 37.0531 28.7628 37.1318 28.8664C37.2104 28.97 37.2641 29.0904 37.2886 29.2182C37.3132 29.3459 37.3079 29.4776 37.2732 29.603Z" fill="#2F4CDD"/>
<path d="M21.8416 34.4233H26.0497C26.2729 34.4233 26.4869 34.3347 26.6448 34.1768C26.8026 34.019 26.8913 33.8049 26.8913 33.5817C26.8913 33.3585 26.8026 33.1444 26.6448 32.9866C26.4869 32.8288 26.2729 32.7401 26.0497 32.7401H21.8416C21.6184 32.7401 21.4043 32.8288 21.2465 32.9866C21.0887 33.1444 21 33.3585 21 33.5817C21 33.8049 21.0887 34.019 21.2465 34.1768C21.4043 34.3347 21.6184 34.4233 21.8416 34.4233Z" fill="#2F4CDD"/>
<path d="M29.4161 36.1066H21.8416C21.6184 36.1066 21.4043 36.1952 21.2465 36.3531C21.0887 36.5109 21 36.725 21 36.9482C21 37.1714 21.0887 37.3854 21.2465 37.5433C21.4043 37.7011 21.6184 37.7898 21.8416 37.7898H29.4161C29.6393 37.7898 29.8534 37.7011 30.0112 37.5433C30.169 37.3854 30.2577 37.1714 30.2577 36.9482C30.2577 36.725 30.169 36.5109 30.0112 36.3531C29.8534 36.1952 29.6393 36.1066 29.4161 36.1066Z" fill="#2F4CDD"/>
<circle cx="53" cy="13" r="13" fill="#2F4CDD"/>
<path d="M50.274 7.766V13.758H52.15C52.36 13.128 52.878 12.68 53.69 12.68C54.796 12.68 55.37 13.31 55.37 14.458C55.37 15.536 54.852 16.348 53.704 16.348C52.752 16.348 52.178 15.83 52.01 15.116H50.106C50.274 16.782 51.534 18 53.732 18C56.056 18 57.26 16.516 57.26 14.43C57.26 12.848 56.448 11.056 54.068 11.056C53.214 11.056 52.444 11.42 52.066 11.882V9.488H56.602V7.766H50.274Z" fill="white"/>
</svg>
