<svg width="44" height="44" viewBox="0 0 44 44" fill="none" xmlns="http://www.w3.org/2000/svg">
<path d="M14.9531 20.625H5.67188C2.54435 20.625 0 18.0806 0 14.9531V5.67188C0 2.54435 2.54435 0 5.67188 0H14.9531C18.0806 0 20.625 2.54435 20.625 5.67188V14.9531C20.625 18.0806 18.0806 20.625 14.9531 20.625ZM5.67188 2.75C4.06072 2.75 2.75 4.06072 2.75 5.67188V14.9531C2.75 16.5643 4.06072 17.875 5.67188 17.875H14.9531C16.5643 17.875 17.875 16.5643 17.875 14.9531V5.67188C17.875 4.06072 16.5643 2.75 14.9531 2.75H5.67188Z" fill="white"/>
<path d="M38.3281 20.625H29.0469C25.9194 20.625 23.375 18.0806 23.375 14.9531V5.67188C23.375 2.54435 25.9194 0 29.0469 0H38.3281C41.4556 0 44 2.54435 44 5.67188V14.9531C44 18.0806 41.4556 20.625 38.3281 20.625ZM29.0469 2.75C27.4357 2.75 26.125 4.06072 26.125 5.67188V14.9531C26.125 16.5643 27.4357 17.875 29.0469 17.875H38.3281C39.9393 17.875 41.25 16.5643 41.25 14.9531V5.67188C41.25 4.06072 39.9393 2.75 38.3281 2.75H29.0469Z" fill="white"/>
<path d="M33.6875 44C28.0012 44 23.375 39.3738 23.375 33.6875C23.375 28.0012 28.0012 23.375 33.6875 23.375C39.3738 23.375 44 28.0012 44 33.6875C44 39.3738 39.3738 44 33.6875 44ZM33.6875 26.125C29.5176 26.125 26.125 29.5176 26.125 33.6875C26.125 37.8574 29.5176 41.25 33.6875 41.25C37.8574 41.25 41.25 37.8574 41.25 33.6875C41.25 29.5176 37.8574 26.125 33.6875 26.125Z" fill="white"/>
<path d="M14.9531 44H5.67188C2.54435 44 0 41.4556 0 38.3281V29.0469C0 25.9194 2.54435 23.375 5.67188 23.375H14.9531C18.0806 23.375 20.625 25.9194 20.625 29.0469V38.3281C20.625 41.4556 18.0806 44 14.9531 44ZM5.67188 26.125C4.06072 26.125 2.75 27.4357 2.75 29.0469V38.3281C2.75 39.9393 4.06072 41.25 5.67188 41.25H14.9531C16.5643 41.25 17.875 39.9393 17.875 38.3281V29.0469C17.875 27.4357 16.5643 26.125 14.9531 26.125H5.67188Z" fill="white"/>
</svg>
