<svg width="78" height="91" viewBox="0 0 78 91" fill="none" xmlns="http://www.w3.org/2000/svg">
<path d="M44.5288 90.3524C42.4047 90.6673 40.2311 90.8318 38.0193 90.8318C29.9289 90.8318 22.3493 88.6477 15.8341 84.8406C16.8639 81.0192 18.845 77.6225 21.4859 74.8857C21.3737 75.002 21.262 75.1187 21.1522 75.2372H48.3587L44.5288 90.3524Z" fill="#E9E3D5"/>
<path d="M60.2045 84.8406C59.2501 81.2986 57.4715 78.1854 55.2895 75.683C53.872 74.0954 52.4031 72.7508 50.5461 71.5692C50.4187 71.4767 49.7923 71.0971 49.591 70.9794C40.1276 65.4302 28.3633 67.4446 21.1524 75.2374C27.3992 77.7975 34.154 78.9667 40.9393 78.6537C41.1927 78.719 41.4309 78.7477 41.6572 78.7477C43.2432 78.7477 44.5292 80.0336 44.5292 81.6197V90.3524C50.1744 89.5151 55.4708 87.6069 60.2045 84.8406Z" fill="#D3CDBF"/>
<path d="M54.917 87.4698C53.4096 88.0971 51.8601 88.6431 50.2734 89.1023V78.7479C52.594 81.0952 54.2452 84.1057 54.917 87.4698Z" fill="#A19B8D"/>
<path d="M25.7654 78.7479V89.1023C24.1787 88.6433 22.6293 88.0971 21.1218 87.4698C21.7937 84.1057 23.4447 81.0952 25.7654 78.7479Z" fill="#B6B0A2"/>
<path d="M38.7855 84.5887C39.5786 84.5887 40.2215 83.9458 40.2215 83.1528C40.2215 82.3597 39.5786 81.7169 38.7855 81.7169C37.9925 81.7169 37.3496 82.3597 37.3496 83.1528C37.3496 83.9458 37.9925 84.5887 38.7855 84.5887Z" fill="#3E4954"/>
<path d="M38.7855 90.3326C39.5785 90.3326 40.2214 89.6898 40.2214 88.8967C40.2214 88.1037 39.5785 87.4608 38.7855 87.4608C37.9925 87.4608 37.3496 88.1037 37.3496 88.8967C37.3496 89.6898 37.9925 90.3326 38.7855 90.3326Z" fill="#3E4954"/>
<path d="M65.5907 47.5904C65.5907 32.7469 53.5496 16.9555 38.7851 16.9555C26.5397 16.9555 16.2128 27.7865 13.0083 39.9087C11.8369 39.3127 10.5121 38.9743 9.1075 38.9743C4.34901 38.9743 0.491394 42.8317 0.491394 47.5904C0.491394 52.3491 4.34882 56.2065 9.1075 56.2065C9.35427 56.2065 9.59784 56.1937 9.83933 56.1733C10.0795 61.1063 12.7189 65.8018 17.3448 68.5442C30.5067 76.3466 47.0635 76.3466 60.2255 68.5442C67.6128 64.1649 69.8862 54.8819 65.5907 47.5904Z" fill="#FFB578"/>
<path d="M68.4627 38.9743C67.0574 38.9743 65.7318 39.3129 64.5598 39.9099C62.4368 31.8764 57.1893 24.4243 50.34 20.3016C50.34 20.3016 57.7304 29.0202 57.7304 45.6768C57.7304 50.7694 55.0046 55.6815 50.2068 58.5254C38.1206 65.6899 23.1724 66.2744 10.6183 60.2811C11.7431 63.6163 14.0337 66.5811 17.3449 68.544C30.5069 76.3464 47.0637 76.3464 60.2255 68.544C64.873 65.7889 67.4943 61.0931 67.7315 56.1733C67.9728 56.1937 68.2162 56.2065 68.4627 56.2065C73.2212 56.2065 77.0788 52.3491 77.0788 47.5904C77.0788 42.8317 73.2212 38.9743 68.4627 38.9743Z" fill="#F7A16E"/>
<path d="M9.10787 50.4634C10.6941 50.4634 11.9799 49.1775 11.9799 47.5913C11.9799 46.0052 10.6941 44.7193 9.10787 44.7193C7.52169 44.7193 6.23584 46.0052 6.23584 47.5913C6.23584 49.1775 7.52169 50.4634 9.10787 50.4634Z" fill="#F7A16E"/>
<path d="M68.4629 50.4634C70.0491 50.4634 71.335 49.1775 71.335 47.5913C71.335 46.0052 70.0491 44.7193 68.4629 44.7193C66.8768 44.7193 65.5909 46.0052 65.5909 47.5913C65.5909 49.1775 66.8768 50.4634 68.4629 50.4634Z" fill="#CE795F"/>
<path d="M13.0083 39.8982C14.9419 40.8819 16.4543 42.5732 17.2044 44.6314C17.548 45.5743 18.7313 45.8973 19.4867 45.2368C23.0994 42.0787 25.3824 37.438 25.3824 32.2624C25.3824 29.0447 24.4995 26.0338 22.9641 23.4565C22.9641 23.4566 11.3564 26.6637 13.0083 39.8982Z" fill="#596775"/>
<path d="M54.6061 23.4567C53.071 26.0338 52.1878 29.0449 52.1878 32.2626C52.1878 37.4382 54.4707 42.0789 58.0836 45.237C58.8394 45.8975 60.0225 45.5745 60.3659 44.6316C61.1156 42.5732 62.6283 40.8821 64.5619 39.8984C66.2141 26.6638 54.6061 23.4567 54.6061 23.4567Z" fill="#46525E"/>
<path d="M63.6761 11.2008H13.8945V31.6784H63.6761V11.2008Z" fill="#E9E3D5"/>
<path d="M62.623 0C61.2343 0 15.6824 0 14.9474 0C10.1361 0 6.23566 3.90044 6.23566 8.71176C6.23566 13.5231 10.1361 17.4235 14.9474 17.4235C15.3166 17.4235 61.6722 17.4235 62.623 17.4235C67.4343 17.4235 71.3348 13.5231 71.3348 8.71176C71.3348 3.90044 67.4343 0 62.623 0Z" fill="#E9E3D5"/>
<path d="M71.3348 8.71176C71.3348 7.19886 70.9486 5.77633 70.2702 4.53662C68.4058 5.01055 67.0266 6.70003 67.0266 8.71176C67.0266 11.1399 65.0511 13.1156 62.6228 13.1156H14.9474C12.9357 13.1156 11.2462 14.4947 10.7723 16.3591C12.012 17.0375 13.4345 17.4237 14.9474 17.4237H23.4677H38.7851C49.3477 17.4237 61.6507 17.4237 62.6228 17.4237C67.4343 17.4235 71.3348 13.5233 71.3348 8.71176Z" fill="#D3CDBF"/>
<path d="M16.192 8.7118C16.192 7.91866 15.5491 7.27588 14.7561 7.27588C13.963 7.27588 13.3202 7.91885 13.3202 8.7118C13.3202 11.0992 14.1509 13.2952 15.5361 15.0302H19.8676C17.6742 13.7755 16.192 11.4144 16.192 8.7118Z" fill="#D3CDBF"/>
<path d="M64.2505 8.7118C64.2505 7.91866 63.6075 7.27588 62.8145 7.27588C62.0216 7.27588 61.3786 7.91885 61.3786 8.7118C61.3786 11.4144 59.8965 13.7755 57.7034 15.0302H62.035C63.4198 13.2952 64.2505 11.0993 64.2505 8.7118Z" fill="#D3CDBF"/>
<path d="M54.1026 7.27588C53.3094 7.27588 52.6667 7.91885 52.6667 8.7118C52.6667 11.4144 51.1845 13.7755 48.9915 15.0302H53.323C54.708 13.295 55.5389 11.0992 55.5389 8.7118C55.5387 7.91885 54.8957 7.27588 54.1026 7.27588Z" fill="#D3CDBF"/>
<path d="M27.68 8.7118C27.68 7.91866 27.037 7.27588 26.2441 7.27588C25.4511 7.27588 24.8081 7.91885 24.8081 8.7118C24.8081 11.0992 25.6388 13.2952 27.024 15.0302H31.3555C29.1623 13.7755 27.68 11.4144 27.68 8.7118Z" fill="#D3CDBF"/>
</svg>
