<svg width="64" height="65" viewBox="0 0 64 65" fill="none" xmlns="http://www.w3.org/2000/svg">
<rect y="9" width="56" height="56" rx="8" fill="#E9ECFF"/>
<path d="M36.75 38.8385V36.0463C36.7471 33.8855 35.9385 31.8035 34.4821 30.2073C33.0258 28.6112 31.0264 27.6156 28.875 27.4152V25.625C28.875 25.3929 28.7828 25.1704 28.6187 25.0063C28.4546 24.8422 28.2321 24.75 28 24.75C27.7679 24.75 27.5454 24.8422 27.3813 25.0063C27.2172 25.1704 27.125 25.3929 27.125 25.625V27.4153C24.9736 27.6157 22.9743 28.6113 21.5179 30.2075C20.0616 31.8036 19.2529 33.8855 19.25 36.0463V38.8383C18.2626 39.0412 17.3753 39.5784 16.7377 40.3593C16.1002 41.1401 15.7513 42.1169 15.75 43.125C15.7508 43.821 16.0276 44.4882 16.5197 44.9803C17.0118 45.4724 17.679 45.7492 18.375 45.75H23.7135C23.9152 46.738 24.452 47.6259 25.2331 48.2636C26.0142 48.9013 26.9916 49.2497 28 49.2497C29.0084 49.2497 29.9858 48.9013 30.7669 48.2636C31.548 47.6259 32.0848 46.738 32.2865 45.75H37.625C38.321 45.7492 38.9882 45.4724 39.4803 44.9803C39.9724 44.4882 40.2492 43.821 40.25 43.125C40.2486 42.117 39.8998 41.1402 39.2622 40.3594C38.6247 39.5786 37.7374 39.0414 36.75 38.8385ZM21 36.0463C21.0023 34.2113 21.7323 32.4522 23.0297 31.1547C24.3272 29.8573 26.0863 29.1273 27.9212 29.125H28.0788C29.9137 29.1273 31.6728 29.8573 32.9703 31.1547C34.2677 32.4522 34.9977 34.2113 35 36.0463V38.75H21V36.0463ZM28 47.5C27.4589 47.4983 26.9316 47.3292 26.4905 47.0159C26.0493 46.7026 25.716 46.2604 25.5363 45.75H30.4637C30.284 46.2604 29.9507 46.7026 29.5095 47.0159C29.0684 47.3292 28.5411 47.4983 28 47.5ZM37.625 44H18.375C18.143 43.9999 17.9205 43.9076 17.7564 43.7436C17.5924 43.5795 17.5001 43.357 17.5 43.125C17.5008 42.429 17.7776 41.7618 18.2697 41.2697C18.7618 40.7776 19.429 40.5008 20.125 40.5H35.875C36.571 40.5008 37.2382 40.7776 37.7303 41.2697C38.2224 41.7618 38.4992 42.429 38.5 43.125C38.4999 43.357 38.4076 43.5795 38.2436 43.7436C38.0795 43.9076 37.857 43.9999 37.625 44Z" fill="#2F4CDD"/>
<circle cx="51" cy="13" r="13" fill="#2F4CDD"/>
<path d="M46.862 18H48.878V7.794H45.504V9.6H46.862V18ZM50.7023 17.86H57.6183V16.236H53.4883C55.1123 14.864 57.3943 13.016 57.3943 10.65C57.3943 8.872 56.2883 7.57 54.0903 7.57C52.2563 7.57 50.7583 8.648 50.6883 10.986H52.5923C52.6063 9.908 53.1243 9.236 54.0623 9.236C55.0283 9.236 55.4343 9.852 55.4343 10.762C55.4343 12.638 53.0123 14.444 50.7023 16.404V17.86Z" fill="white"/>
</svg>
