<svg width="659" height="169" viewBox="0 0 659 169" fill="none" xmlns="http://www.w3.org/2000/svg">
<path d="M642.693 51.86H649.497V50.53H645.059C646.697 49.032 649.217 47.142 649.217 44.664C649.217 42.83 648.041 41.584 645.969 41.584C644.163 41.584 642.735 42.662 642.679 44.874H644.219C644.261 43.726 644.863 42.942 645.983 42.942C647.173 42.942 647.635 43.67 647.635 44.734C647.635 46.736 645.101 48.584 642.693 50.698V51.86ZM651.319 41.766V47.66H652.831C653.097 46.904 653.727 46.386 654.665 46.386C655.995 46.386 656.653 47.142 656.653 48.472C656.653 49.732 656.037 50.67 654.665 50.67C653.587 50.67 652.859 50.11 652.649 49.242H651.095C651.333 50.838 652.551 52 654.651 52C657.017 52 658.179 50.46 658.179 48.43C658.179 46.89 657.409 45.028 654.903 45.028C653.993 45.028 653.167 45.448 652.789 45.952V43.166H657.479V41.766H651.319Z" fill="#969BA0"/>
<path d="M200.458 47.114C200.458 44.202 198.26 42.144 195.488 42.144C192.744 42.144 190.518 44.202 190.518 47.114C190.518 50.04 192.744 52.098 195.488 52.098C198.26 52.098 200.458 50.04 200.458 47.114ZM192.156 47.114C192.156 44.916 193.556 43.544 195.488 43.544C197.42 43.544 198.82 44.916 198.82 47.114C198.82 49.312 197.42 50.712 195.488 50.712C193.556 50.712 192.156 49.312 192.156 47.114ZM207.503 52H209.085V47.45C209.085 45.294 207.727 44.16 205.921 44.16C204.997 44.16 204.143 44.538 203.625 45.168V44.286H202.029V52H203.625V47.688C203.625 46.274 204.395 45.546 205.571 45.546C206.733 45.546 207.503 46.274 207.503 47.688V52ZM217.935 42.27H214.757V52H217.935C221.057 52 223.101 50.166 223.101 47.17C223.101 44.16 221.057 42.27 217.935 42.27ZM216.353 50.698V43.572H217.935C220.231 43.572 221.463 44.944 221.463 47.17C221.463 49.382 220.231 50.698 217.935 50.698H216.353ZM227.931 45.504C229.121 45.504 230.059 46.26 230.087 47.45H225.817C225.985 46.232 226.853 45.504 227.931 45.504ZM231.543 49.704H229.821C229.527 50.306 228.981 50.782 228.001 50.782C226.825 50.782 225.915 50.012 225.803 48.738H231.697C231.739 48.472 231.753 48.22 231.753 47.954C231.753 45.686 230.199 44.16 228.001 44.16C225.719 44.16 224.151 45.714 224.151 48.136C224.151 50.558 225.789 52.126 228.001 52.126C229.891 52.126 231.109 51.048 231.543 49.704ZM233.323 52H234.919V41.64H233.323V52ZM237.015 52H238.611V44.286H237.015V52ZM237.827 43.264C238.387 43.264 238.835 42.816 238.835 42.242C238.835 41.668 238.387 41.22 237.827 41.22C237.253 41.22 236.805 41.668 236.805 42.242C236.805 42.816 237.253 43.264 237.827 43.264ZM239.796 44.286L242.722 52H244.626L247.566 44.286H245.872L243.688 50.572L241.504 44.286H239.796ZM252.021 45.504C253.211 45.504 254.149 46.26 254.177 47.45H249.907C250.075 46.232 250.943 45.504 252.021 45.504ZM255.633 49.704H253.911C253.617 50.306 253.071 50.782 252.091 50.782C250.915 50.782 250.005 50.012 249.893 48.738H255.787C255.829 48.472 255.843 48.22 255.843 47.954C255.843 45.686 254.289 44.16 252.091 44.16C249.809 44.16 248.241 45.714 248.241 48.136C248.241 50.558 249.879 52.126 252.091 52.126C253.981 52.126 255.199 51.048 255.633 49.704ZM259.009 47.94C259.009 46.302 259.737 45.812 260.913 45.812H261.319V44.16C260.227 44.16 259.457 44.636 259.009 45.406V44.286H257.413V52H259.009V47.94ZM265.824 50.166L263.654 44.286H261.876L264.914 51.874L263.346 55.626H264.998L269.73 44.286H268.078L265.824 50.166ZM279.751 54.604V54.45C277.791 52.434 276.797 49.676 276.797 46.904C276.797 44.132 277.791 41.136 280.031 39.078V38.924H278.379C276.251 40.814 275.257 43.852 275.257 46.904C275.257 49.956 276.251 52.826 278.099 54.604H279.751ZM282.344 52H283.954V41.794H281.042V43.25H282.344V52ZM286.567 41.766V47.66H288.079C288.345 46.904 288.975 46.386 289.913 46.386C291.243 46.386 291.901 47.142 291.901 48.472C291.901 49.732 291.285 50.67 289.913 50.67C288.835 50.67 288.107 50.11 287.897 49.242H286.343C286.581 50.838 287.799 52 289.899 52C292.265 52 293.427 50.46 293.427 48.43C293.427 46.89 292.657 45.028 290.151 45.028C289.241 45.028 288.415 45.448 288.037 45.952V43.166H292.727V41.766H286.567ZM294.836 44.258C294.836 45.658 295.746 46.456 296.964 46.456C298.182 46.456 299.092 45.658 299.092 44.258C299.092 42.872 298.182 42.074 296.964 42.074C295.746 42.074 294.836 42.872 294.836 44.258ZM296.964 43.04C297.496 43.04 297.846 43.39 297.846 44.258C297.846 45.126 297.496 45.49 296.964 45.49C296.418 45.49 296.082 45.126 296.082 44.258C296.082 43.39 296.418 43.04 296.964 43.04ZM296.222 52H297.79L303.376 42.256H301.808L296.222 52ZM300.534 49.984C300.534 51.384 301.444 52.182 302.662 52.182C303.866 52.182 304.776 51.384 304.776 49.984C304.776 48.584 303.866 47.8 302.662 47.8C301.444 47.8 300.534 48.584 300.534 49.984ZM302.648 48.766C303.18 48.766 303.53 49.116 303.53 49.984C303.53 50.852 303.18 51.202 302.648 51.202C302.116 51.202 301.766 50.852 301.766 49.984C301.766 49.116 302.116 48.766 302.648 48.766ZM306.021 54.604V54.45C307.981 52.434 308.975 49.676 308.975 46.904C308.975 44.132 307.981 41.136 305.741 39.078V38.924H307.393C309.521 40.814 310.515 43.852 310.515 46.904C310.515 49.956 309.521 52.826 307.673 54.604H306.021Z" fill="#3E4954"/>
<rect x="341" y="44" width="247" height="8" rx="4" fill="#F3F3F3"/>
<g filter="url(#filter0_d)">
<rect x="341" y="44" width="184" height="8" rx="4" fill="#FF6D4C"/>
</g>
<path d="M194.228 83.27H191.05V93H194.228C197.35 93 199.394 91.166 199.394 88.17C199.394 85.16 197.35 83.27 194.228 83.27ZM192.646 91.698V84.572H194.228C196.524 84.572 197.756 85.944 197.756 88.17C197.756 90.382 196.524 91.698 194.228 91.698H192.646ZM204.224 86.504C205.414 86.504 206.352 87.26 206.38 88.45H202.11C202.278 87.232 203.146 86.504 204.224 86.504ZM207.836 90.704H206.114C205.82 91.306 205.274 91.782 204.294 91.782C203.118 91.782 202.208 91.012 202.096 89.738H207.99C208.032 89.472 208.046 89.22 208.046 88.954C208.046 86.686 206.492 85.16 204.294 85.16C202.012 85.16 200.444 86.714 200.444 89.136C200.444 91.558 202.082 93.126 204.294 93.126C206.184 93.126 207.402 92.048 207.836 90.704ZM209.616 93H211.212V82.64H209.616V93ZM213.308 93H214.904V85.286H213.308V93ZM214.12 84.264C214.68 84.264 215.128 83.816 215.128 83.242C215.128 82.668 214.68 82.22 214.12 82.22C213.546 82.22 213.098 82.668 213.098 83.242C213.098 83.816 213.546 84.264 214.12 84.264ZM216.089 85.286L219.015 93H220.919L223.859 85.286H222.165L219.981 91.572L217.797 85.286H216.089ZM228.314 86.504C229.504 86.504 230.442 87.26 230.47 88.45H226.2C226.368 87.232 227.236 86.504 228.314 86.504ZM231.926 90.704H230.204C229.91 91.306 229.364 91.782 228.384 91.782C227.208 91.782 226.298 91.012 226.186 89.738H232.08C232.122 89.472 232.136 89.22 232.136 88.954C232.136 86.686 230.582 85.16 228.384 85.16C226.102 85.16 224.534 86.714 224.534 89.136C224.534 91.558 226.172 93.126 228.384 93.126C230.274 93.126 231.492 92.048 231.926 90.704ZM235.302 88.94C235.302 87.302 236.03 86.812 237.206 86.812H237.612V85.16C236.52 85.16 235.75 85.636 235.302 86.406V85.286H233.706V93H235.302V88.94ZM242.327 86.504C243.517 86.504 244.455 87.26 244.483 88.45H240.213C240.381 87.232 241.249 86.504 242.327 86.504ZM245.939 90.704H244.217C243.923 91.306 243.377 91.782 242.397 91.782C241.221 91.782 240.311 91.012 240.199 89.738H246.093C246.135 89.472 246.149 89.22 246.149 88.954C246.149 86.686 244.595 85.16 242.397 85.16C240.115 85.16 238.547 86.714 238.547 89.136C238.547 91.558 240.185 93.126 242.397 93.126C244.287 93.126 245.505 92.048 245.939 90.704ZM247.188 89.108C247.188 91.488 248.798 93.126 250.828 93.126C252.088 93.126 253.012 92.538 253.502 91.838V93H255.112V82.64H253.502V86.364C252.914 85.636 251.85 85.16 250.842 85.16C248.798 85.16 247.188 86.728 247.188 89.108ZM253.502 89.136C253.502 90.802 252.368 91.74 251.164 91.74C249.974 91.74 248.826 90.774 248.826 89.108C248.826 87.442 249.974 86.546 251.164 86.546C252.368 86.546 253.502 87.484 253.502 89.136ZM266.025 95.604V95.45C264.065 93.434 263.071 90.676 263.071 87.904C263.071 85.132 264.065 82.136 266.305 80.078V79.924H264.653C262.525 81.814 261.531 84.852 261.531 87.904C261.531 90.956 262.525 93.826 264.373 95.604H266.025ZM268.618 93H270.228V82.794H267.316V84.25H268.618V93ZM272.84 82.766V88.66H274.352C274.618 87.904 275.248 87.386 276.186 87.386C277.516 87.386 278.174 88.142 278.174 89.472C278.174 90.732 277.558 91.67 276.186 91.67C275.108 91.67 274.38 91.11 274.17 90.242H272.616C272.854 91.838 274.072 93 276.172 93C278.538 93 279.7 91.46 279.7 89.43C279.7 87.89 278.93 86.028 276.424 86.028C275.514 86.028 274.688 86.448 274.31 86.952V84.166H279V82.766H272.84ZM281.109 85.258C281.109 86.658 282.019 87.456 283.237 87.456C284.455 87.456 285.365 86.658 285.365 85.258C285.365 83.872 284.455 83.074 283.237 83.074C282.019 83.074 281.109 83.872 281.109 85.258ZM283.237 84.04C283.769 84.04 284.119 84.39 284.119 85.258C284.119 86.126 283.769 86.49 283.237 86.49C282.691 86.49 282.355 86.126 282.355 85.258C282.355 84.39 282.691 84.04 283.237 84.04ZM282.495 93H284.063L289.649 83.256H288.081L282.495 93ZM286.807 90.984C286.807 92.384 287.717 93.182 288.935 93.182C290.139 93.182 291.049 92.384 291.049 90.984C291.049 89.584 290.139 88.8 288.935 88.8C287.717 88.8 286.807 89.584 286.807 90.984ZM288.921 89.766C289.453 89.766 289.803 90.116 289.803 90.984C289.803 91.852 289.453 92.202 288.921 92.202C288.389 92.202 288.039 91.852 288.039 90.984C288.039 90.116 288.389 89.766 288.921 89.766ZM292.295 95.604V95.45C294.255 93.434 295.249 90.676 295.249 87.904C295.249 85.132 294.255 82.136 292.015 80.078V79.924H293.667C295.795 81.814 296.789 84.852 296.789 87.904C296.789 90.956 295.795 93.826 293.947 95.604H292.295Z" fill="#3E4954"/>
<rect x="341" y="85" width="247" height="8" rx="4" fill="#F3F3F3"/>
<g filter="url(#filter1_d)">
<rect x="341" y="85" width="145" height="8" rx="4" fill="#2BC155"/>
</g>
<path d="M647.847 86.16C647.679 84.802 646.685 83.542 644.697 83.542C642.149 83.542 641.085 85.474 641.085 88.666C641.085 91.914 641.855 94 644.823 94C647.007 94 648.169 92.53 648.169 90.598C648.169 88.47 646.867 87.238 645.033 87.238C643.969 87.238 642.961 87.686 642.457 88.526C642.499 85.852 643.241 84.872 644.683 84.872C645.691 84.872 646.181 85.334 646.377 86.16H647.847ZM644.683 88.582C646.027 88.582 646.643 89.45 646.643 90.668C646.643 91.872 645.915 92.67 644.739 92.67C643.381 92.67 642.639 91.83 642.639 90.57C642.639 89.212 643.633 88.582 644.683 88.582ZM649.871 88.764C649.871 91.732 650.655 93.972 653.511 93.972C656.367 93.972 657.151 91.732 657.151 88.764C657.151 85.852 656.367 83.612 653.511 83.612C650.655 83.612 649.871 85.852 649.871 88.764ZM655.583 88.764C655.583 90.766 655.373 92.516 653.511 92.516C651.649 92.516 651.439 90.766 651.439 88.764C651.439 86.86 651.649 85.068 653.511 85.068C655.373 85.068 655.583 86.86 655.583 88.764Z" fill="#969BA0"/>
<path d="M651.726 123.836V125.194H656.906L652.972 134H654.582L658.474 125.026V123.836H651.726Z" fill="#969BA0"/>
<path d="M190.518 129.114C190.518 132.04 192.744 134.084 195.488 134.084C197.518 134.084 199.268 133.076 200.01 131.172H198.092C197.574 132.208 196.65 132.698 195.488 132.698C193.556 132.698 192.156 131.312 192.156 129.114C192.156 126.916 193.556 125.544 195.488 125.544C196.65 125.544 197.574 126.034 198.092 127.07H200.01C199.268 125.166 197.518 124.144 195.488 124.144C192.744 124.144 190.518 126.202 190.518 129.114ZM201.346 130.108C201.346 132.488 202.956 134.126 204.958 134.126C206.246 134.126 207.17 133.51 207.66 132.852V134H209.27V126.286H207.66V127.406C207.184 126.776 206.288 126.16 204.986 126.16C202.956 126.16 201.346 127.728 201.346 130.108ZM207.66 130.136C207.66 131.802 206.526 132.74 205.322 132.74C204.132 132.74 202.984 131.774 202.984 130.108C202.984 128.442 204.132 127.546 205.322 127.546C206.526 127.546 207.66 128.484 207.66 130.136ZM216.84 134H218.422V129.45C218.422 127.294 217.064 126.16 215.258 126.16C214.334 126.16 213.48 126.538 212.962 127.168V126.286H211.366V134H212.962V129.688C212.962 128.274 213.732 127.546 214.908 127.546C216.07 127.546 216.84 128.274 216.84 129.688V134ZM219.926 130.136C219.926 132.558 221.494 134.126 223.706 134.126C225.596 134.126 226.828 133.076 227.262 131.564H225.54C225.246 132.362 224.658 132.782 223.706 132.782C222.418 132.782 221.564 131.83 221.564 130.136C221.564 128.456 222.418 127.504 223.706 127.504C224.658 127.504 225.274 127.98 225.54 128.722H227.262C226.828 127.098 225.596 126.16 223.706 126.16C221.494 126.16 219.926 127.728 219.926 130.136ZM232.101 127.504C233.291 127.504 234.229 128.26 234.257 129.45H229.987C230.155 128.232 231.023 127.504 232.101 127.504ZM235.713 131.704H233.991C233.697 132.306 233.151 132.782 232.171 132.782C230.995 132.782 230.085 132.012 229.973 130.738H235.867C235.909 130.472 235.923 130.22 235.923 129.954C235.923 127.686 234.369 126.16 232.171 126.16C229.889 126.16 228.321 127.714 228.321 130.136C228.321 132.558 229.959 134.126 232.171 134.126C234.061 134.126 235.279 133.048 235.713 131.704ZM237.493 134H239.089V123.64H237.493V134ZM244.433 127.504C245.623 127.504 246.561 128.26 246.589 129.45H242.319C242.487 128.232 243.355 127.504 244.433 127.504ZM248.045 131.704H246.323C246.029 132.306 245.483 132.782 244.503 132.782C243.327 132.782 242.417 132.012 242.305 130.738H248.199C248.241 130.472 248.255 130.22 248.255 129.954C248.255 127.686 246.701 126.16 244.503 126.16C242.221 126.16 240.653 127.714 240.653 130.136C240.653 132.558 242.291 134.126 244.503 134.126C246.393 134.126 247.611 133.048 248.045 131.704ZM249.293 130.108C249.293 132.488 250.903 134.126 252.933 134.126C254.193 134.126 255.117 133.538 255.607 132.838V134H257.217V123.64H255.607V127.364C255.019 126.636 253.955 126.16 252.947 126.16C250.903 126.16 249.293 127.728 249.293 130.108ZM255.607 130.136C255.607 131.802 254.473 132.74 253.269 132.74C252.079 132.74 250.931 131.774 250.931 130.108C250.931 128.442 252.079 127.546 253.269 127.546C254.473 127.546 255.607 128.484 255.607 130.136ZM268.13 136.604V136.45C266.17 134.434 265.176 131.676 265.176 128.904C265.176 126.132 266.17 123.136 268.41 121.078V120.924H266.758C264.63 122.814 263.636 125.852 263.636 128.904C263.636 131.956 264.63 134.826 266.478 136.604H268.13ZM270.723 134H272.333V123.794H269.421V125.25H270.723V134ZM274.946 123.766V129.66H276.458C276.724 128.904 277.354 128.386 278.292 128.386C279.622 128.386 280.28 129.142 280.28 130.472C280.28 131.732 279.664 132.67 278.292 132.67C277.214 132.67 276.486 132.11 276.276 131.242H274.722C274.96 132.838 276.178 134 278.278 134C280.644 134 281.806 132.46 281.806 130.43C281.806 128.89 281.036 127.028 278.53 127.028C277.62 127.028 276.794 127.448 276.416 127.952V125.166H281.106V123.766H274.946ZM283.215 126.258C283.215 127.658 284.125 128.456 285.343 128.456C286.561 128.456 287.471 127.658 287.471 126.258C287.471 124.872 286.561 124.074 285.343 124.074C284.125 124.074 283.215 124.872 283.215 126.258ZM285.343 125.04C285.875 125.04 286.225 125.39 286.225 126.258C286.225 127.126 285.875 127.49 285.343 127.49C284.797 127.49 284.461 127.126 284.461 126.258C284.461 125.39 284.797 125.04 285.343 125.04ZM284.601 134H286.169L291.755 124.256H290.187L284.601 134ZM288.913 131.984C288.913 133.384 289.823 134.182 291.041 134.182C292.245 134.182 293.155 133.384 293.155 131.984C293.155 130.584 292.245 129.8 291.041 129.8C289.823 129.8 288.913 130.584 288.913 131.984ZM291.027 130.766C291.559 130.766 291.909 131.116 291.909 131.984C291.909 132.852 291.559 133.202 291.027 133.202C290.495 133.202 290.145 132.852 290.145 131.984C290.145 131.116 290.495 130.766 291.027 130.766ZM294.4 136.604V136.45C296.36 134.434 297.354 131.676 297.354 128.904C297.354 126.132 296.36 123.136 294.12 121.078V120.924H295.772C297.9 122.814 298.894 125.852 298.894 128.904C298.894 131.956 297.9 134.826 296.052 136.604H294.4Z" fill="#3E4954"/>
<rect x="341" y="126" width="247" height="8" rx="4" fill="#F3F3F3"/>
<g filter="url(#filter2_d)">
<rect x="341" y="126" width="53" height="8" rx="4" fill="#3E4954"/>
</g>
<path d="M21.4021 63.502C25.8493 50.1385 34.4244 38.5321 45.8917 30.3553C57.3589 22.1785 71.1261 17.8536 85.2093 18.0038L84.8191 54.5768C78.4817 54.5092 72.2865 56.4554 67.1262 60.1349C61.9659 63.8145 58.1071 69.0374 56.1059 75.0509L21.4021 63.502Z" fill="#3E4954" stroke="white" stroke-width="8"/>
<path d="M83.5969 18.0062C99.0395 17.7965 114.074 22.9682 126.119 32.6338C138.164 42.2995 146.47 55.8563 149.611 70.9776C152.751 86.0989 150.53 101.842 143.33 115.505C136.129 129.167 124.398 139.898 110.149 145.855L96.042 112.11C102.454 109.429 107.733 104.6 110.973 98.4521C114.214 92.3038 115.213 85.2195 113.8 78.4149C112.386 71.6103 108.649 65.5098 103.228 61.1602C97.808 56.8107 91.0427 54.4834 84.0936 54.5778L83.5969 18.0062Z" fill="#FF6D4C" stroke="white" stroke-width="8"/>
<path d="M111.145 145.428C99.3679 150.579 86.3503 152.206 73.6677 150.112C60.9851 148.018 49.1812 142.293 39.6844 133.631C30.1875 124.968 23.4049 113.738 20.1573 101.301C16.9097 88.8639 17.3363 75.752 21.3854 63.5521L56.0984 75.0735C54.2763 80.5634 54.0843 86.4638 55.5457 92.0605C57.0072 97.6573 60.0593 102.711 64.3329 106.609C68.6065 110.507 73.9182 113.083 79.6254 114.025C85.3326 114.968 91.1905 114.236 96.4903 111.918L111.145 145.428Z" fill="#2BC155" stroke="white" stroke-width="8"/>
<defs>
<filter id="filter0_d" x="329" y="34" width="208" height="32" filterUnits="userSpaceOnUse" color-interpolation-filters="sRGB">
<feFlood flood-opacity="0" result="BackgroundImageFix"/>
<feColorMatrix in="SourceAlpha" type="matrix" values="0 0 0 0 0 0 0 0 0 0 0 0 0 0 0 0 0 0 127 0"/>
<feOffset dy="2"/>
<feGaussianBlur stdDeviation="6"/>
<feColorMatrix type="matrix" values="0 0 0 0 1 0 0 0 0 0.467 0 0 0 0 0.35 0 0 0 0.26 0"/>
<feBlend mode="normal" in2="BackgroundImageFix" result="effect1_dropShadow"/>
<feBlend mode="normal" in="SourceGraphic" in2="effect1_dropShadow" result="shape"/>
</filter>
<filter id="filter1_d" x="329" y="75" width="169" height="32" filterUnits="userSpaceOnUse" color-interpolation-filters="sRGB">
<feFlood flood-opacity="0" result="BackgroundImageFix"/>
<feColorMatrix in="SourceAlpha" type="matrix" values="0 0 0 0 0 0 0 0 0 0 0 0 0 0 0 0 0 0 127 0"/>
<feOffset dy="2"/>
<feGaussianBlur stdDeviation="6"/>
<feColorMatrix type="matrix" values="0 0 0 0 0.167465 0 0 0 0 0.758333 0 0 0 0 0.332908 0 0 0 0.21 0"/>
<feBlend mode="normal" in2="BackgroundImageFix" result="effect1_dropShadow"/>
<feBlend mode="normal" in="SourceGraphic" in2="effect1_dropShadow" result="shape"/>
</filter>
<filter id="filter2_d" x="329" y="116" width="77" height="32" filterUnits="userSpaceOnUse" color-interpolation-filters="sRGB">
<feFlood flood-opacity="0" result="BackgroundImageFix"/>
<feColorMatrix in="SourceAlpha" type="matrix" values="0 0 0 0 0 0 0 0 0 0 0 0 0 0 0 0 0 0 127 0"/>
<feOffset dy="2"/>
<feGaussianBlur stdDeviation="6"/>
<feColorMatrix type="matrix" values="0 0 0 0 0.243137 0 0 0 0 0.286275 0 0 0 0 0.329412 0 0 0 0.21 0"/>
<feBlend mode="normal" in2="BackgroundImageFix" result="effect1_dropShadow"/>
<feBlend mode="normal" in="SourceGraphic" in2="effect1_dropShadow" result="shape"/>
</filter>
</defs>
</svg>
