<svg width="229" height="64" viewBox="0 0 229 64" fill="none" xmlns="http://www.w3.org/2000/svg">
<rect y="4" width="206" height="56" rx="8" fill="#2F4CDD"/>
<path d="M30.368 38H31.824V26.848H30.368V31.744H24.688V26.848H23.232V38H24.688V32.944H30.368V38ZM38.0225 30.32C39.5265 30.32 40.8065 31.264 40.7905 32.976H35.2545C35.4145 31.264 36.5985 30.32 38.0225 30.32ZM42.1185 35.296H40.5505C40.2305 36.24 39.3985 36.912 38.0865 36.912C36.5985 36.912 35.3505 35.936 35.2385 34.16H42.2465C42.2785 33.856 42.2945 33.6 42.2945 33.28C42.2945 30.88 40.6305 29.088 38.0865 29.088C35.5265 29.088 33.7505 30.832 33.7505 33.6C33.7505 36.384 35.5905 38.144 38.0865 38.144C40.2625 38.144 41.6705 36.896 42.1185 35.296ZM44.2164 38H45.6724V26.16H44.2164V38ZM48.1539 38H49.6099V26.16H48.1539V38ZM60.4114 33.6C60.4114 30.832 58.4754 29.088 55.9794 29.088C53.4994 29.088 51.5474 30.832 51.5474 33.6C51.5474 36.384 53.4354 38.144 55.9154 38.144C58.4114 38.144 60.4114 36.384 60.4114 33.6ZM53.0354 33.6C53.0354 31.392 54.4274 30.352 55.9634 30.352C57.4674 30.352 58.9234 31.392 58.9234 33.6C58.9234 35.824 57.4354 36.864 55.9154 36.864C54.3954 36.864 53.0354 35.824 53.0354 33.6ZM61.0617 40.288H62.0378L63.8298 35.984H62.2298L61.0617 40.288ZM76.9901 34.768C76.9901 30.832 71.2621 32.08 71.2621 29.84C71.2621 28.928 71.9181 28.496 72.7981 28.528C73.7581 28.544 74.3501 29.12 74.3981 29.856H76.8621C76.7181 27.84 75.1501 26.672 72.8621 26.672C70.5581 26.672 68.9261 27.888 68.9261 29.904C68.9101 33.952 74.6701 32.496 74.6701 34.912C74.6701 35.712 74.0461 36.272 72.9901 36.272C71.9501 36.272 71.3581 35.68 71.2941 34.784H68.8941C68.9261 36.896 70.7181 38.112 73.0381 38.112C75.5821 38.112 76.9901 36.528 76.9901 34.768ZM78.3561 33.536C78.3561 36.304 80.1481 38.144 82.3881 38.144C83.7961 38.144 84.8041 37.472 85.3321 36.704V38H87.5881V29.136H85.3321V30.4C84.8041 29.664 83.8281 28.992 82.4041 28.992C80.1481 28.992 78.3561 30.768 78.3561 33.536ZM85.3321 33.568C85.3321 35.248 84.2121 36.176 82.9801 36.176C81.7801 36.176 80.6441 35.216 80.6441 33.536C80.6441 31.856 81.7801 30.96 82.9801 30.96C84.2121 30.96 85.3321 31.888 85.3321 33.568ZM102.176 38H104.416V32.8C104.416 30.352 102.912 29.008 100.784 29.008C99.4879 29.008 98.3199 29.696 97.7439 30.704C97.1359 29.6 95.9999 29.008 94.6239 29.008C93.5199 29.008 92.5759 29.472 92.0159 30.208V29.136H89.7759V38H92.0159V33.104C92.0159 31.696 92.7999 30.96 94.0159 30.96C95.1999 30.96 95.9839 31.696 95.9839 33.104V38H98.2239V33.104C98.2239 31.696 99.0079 30.96 100.208 30.96C101.392 30.96 102.176 31.696 102.176 33.104V38ZM114.91 29.136H112.654V34.016C112.654 35.44 111.886 36.208 110.67 36.208C109.486 36.208 108.702 35.44 108.702 34.016V29.136H106.462V34.336C106.462 36.768 107.95 38.112 110.014 38.112C111.118 38.112 112.094 37.632 112.654 36.88V38H114.91V29.136ZM120.928 30.832C122.08 30.832 123.008 31.568 123.04 32.736H118.832C119.008 31.52 119.856 30.832 120.928 30.832ZM125.136 35.216H122.72C122.432 35.808 121.904 36.288 120.944 36.288C119.824 36.288 118.928 35.552 118.816 34.24H125.296C125.344 33.952 125.36 33.664 125.36 33.376C125.36 30.736 123.552 28.992 120.992 28.992C118.368 28.992 116.544 30.768 116.544 33.568C116.544 36.352 118.416 38.144 120.992 38.144C123.184 38.144 124.656 36.848 125.136 35.216ZM126.995 38H129.235V26.16H126.995V38Z" fill="white"/>
<circle cx="197" cy="32" r="30" fill="#C4C4C4" stroke="white" stroke-width="4"/>
</svg>
