<svg width="66" height="65" viewBox="0 0 66 65" fill="none" xmlns="http://www.w3.org/2000/svg">
<rect y="9" width="56" height="56" rx="8" fill="#F1F1F1"/>
<path d="M37.625 29.125H36.75V25.625C36.75 25.4726 36.7102 25.3229 36.6345 25.1906C36.5589 25.0583 36.45 24.9481 36.3186 24.8709C36.1873 24.7936 36.0381 24.752 35.8857 24.7501C35.7333 24.7483 35.5831 24.7862 35.4499 24.8602L28 28.9991L20.5501 24.8602C20.4169 24.7862 20.2667 24.7483 20.1143 24.7501C19.9619 24.752 19.8127 24.7936 19.6814 24.8709C19.55 24.9481 19.4411 25.0583 19.3655 25.1906C19.2898 25.3229 19.25 25.4726 19.25 25.625V29.125H18.375C17.679 29.1258 17.0118 29.4026 16.5197 29.8947C16.0276 30.3868 15.7508 31.054 15.75 31.75V34.375C15.7508 35.071 16.0276 35.7382 16.5197 36.2303C17.0118 36.7224 17.679 36.9992 18.375 37H19.25V46.625C19.2508 47.321 19.5276 47.9882 20.0197 48.4803C20.5118 48.9724 21.179 49.2492 21.875 49.25H34.125C34.821 49.2492 35.4882 48.9724 35.9803 48.4803C36.4724 47.9882 36.7492 47.321 36.75 46.625V37H37.625C38.321 36.9992 38.9882 36.7224 39.4803 36.2303C39.9724 35.7382 40.2492 35.071 40.25 34.375V31.75C40.2492 31.054 39.9724 30.3868 39.4803 29.8947C38.9882 29.4026 38.321 29.1258 37.625 29.125ZM35 29.125H31.3769L35 27.1125V29.125ZM21 27.1125L24.6231 29.125H21V27.1125ZM21 46.625V37H27.125V47.5H21.875C21.643 47.4997 21.4206 47.4074 21.2566 47.2434C21.0926 47.0793 21.0003 46.857 21 46.625ZM35 46.625C34.9997 46.857 34.9074 47.0793 34.7434 47.2434C34.5794 47.4074 34.357 47.4997 34.125 47.5H28.875V37H35V46.625ZM38.5 34.375C38.4997 34.607 38.4074 34.8294 38.2434 34.9934C38.0794 35.1574 37.857 35.2497 37.625 35.25H18.375C18.143 35.2497 17.9206 35.1574 17.7566 34.9934C17.5926 34.8294 17.5003 34.607 17.5 34.375V31.75C17.5003 31.518 17.5926 31.2956 17.7566 31.1316C17.9206 30.9676 18.143 30.8753 18.375 30.875H37.625C37.857 30.8753 38.0794 30.9676 38.2434 31.1316C38.4074 31.2956 38.4997 31.518 38.5 31.75V34.375Z" fill="#3E4954"/>
<circle cx="53" cy="13" r="13" fill="#3E4954"/>
<path d="M49.63 17.86H56.546V16.236H52.416C54.04 14.864 56.322 13.016 56.322 10.65C56.322 8.872 55.216 7.57 53.018 7.57C51.184 7.57 49.686 8.648 49.616 10.986H51.52C51.534 9.908 52.052 9.236 52.99 9.236C53.956 9.236 54.362 9.852 54.362 10.762C54.362 12.638 51.94 14.444 49.63 16.404V17.86Z" fill="white"/>
</svg>
